ply
format ascii 1.0
comment Created by Blender 2.63 (sub 0) - www.blender.org, source file: ''
element vertex 507
property float x
property float y
property float z
property float nx
property float ny
property float nz
element face 968
property list uchar uint vertex_indices
end_header
0.473633 0.243164 0.750977 0.773461 -0.002625 0.633808
0.439453 0.160156 0.758789 0.601611 -0.467666 0.647542
0.487305 0.108398 0.685547 0.629170 -0.542558 0.556505
-0.487305 0.108398 0.685547 -0.629170 -0.542558 0.556505
-0.439453 0.160156 0.758789 -0.601611 -0.467666 0.647542
-0.473633 0.243164 0.750977 -0.773461 -0.002625 0.633808
0.542969 0.242188 0.672852 0.836177 -0.004456 0.548387
0.519531 0.079427 0.600260 0.688223 -0.565386 0.454543
-0.519531 0.079427 0.600260 -0.688223 -0.565386 0.454543
-0.542969 0.242188 0.672852 -0.836177 -0.004456 0.548387
0.351562 0.052734 0.712891 0.089236 -0.799646 0.593768
0.351562 0.011719 0.632812 0.112369 -0.883145 0.455397
-0.351562 0.011719 0.632812 -0.112369 -0.883145 0.455397
-0.351562 0.052734 0.712891 -0.089236 -0.799646 0.593768
0.352539 0.125977 0.776367 0.117710 -0.728080 0.675283
-0.352539 0.125977 0.776367 -0.117710 -0.728080 0.675283
0.269531 0.160156 0.791016 -0.440535 -0.538774 0.718040
0.216797 0.108398 0.734375 -0.498581 -0.579455 0.644673
-0.216797 0.108398 0.734375 0.498581 -0.579455 0.644673
-0.269531 0.160156 0.791016 0.440535 -0.538774 0.718040
0.183594 0.079427 0.660156 -0.563494 -0.651967 0.507309
-0.183594 0.079427 0.660156 0.563494 -0.651967 0.507309
0.161133 0.242188 0.738281 -0.744102 -0.007477 0.667989
-0.114583 0.243490 0.667969 0.835871 -0.002625 0.548906
-0.161133 0.242188 0.738281 0.744102 -0.007477 0.667989
0.235352 0.243164 0.792969 -0.690329 -0.001892 0.723472
-0.235352 0.243164 0.792969 0.690329 -0.001892 0.723472
0.269531 0.330078 0.791016 -0.453841 0.539293 0.709342
0.216797 0.377930 0.734375 -0.500259 0.572192 0.649831
-0.216797 0.377930 0.734375 0.500259 0.572192 0.649831
-0.269531 0.330078 0.791016 0.453841 0.539293 0.709342
0.114583 0.243490 0.667969 -0.835871 -0.002625 0.548906
-0.183594 0.410156 0.660156 0.550096 0.648274 0.526383
0.351562 0.433594 0.712891 0.090732 0.793817 0.601306
0.183594 0.410156 0.660156 -0.550096 0.648274 0.526383
-0.351562 0.479167 0.632812 -0.115909 0.862819 0.492019
-0.351562 0.433594 0.712891 -0.090732 0.793817 0.601306
0.352539 0.365234 0.776367 0.115879 0.740440 0.662008
-0.352539 0.365234 0.776367 -0.115879 0.740440 0.662008
0.439453 0.330078 0.758789 0.608295 0.470962 0.638844
-0.487305 0.377930 0.685547 -0.633534 0.532395 0.561357
-0.439453 0.330078 0.758789 -0.608295 0.470962 0.638844
0.487305 0.377930 0.685547 0.633534 0.532395 0.561357
0.351562 0.479167 0.632812 0.115909 0.862819 0.492019
-0.519531 0.410156 0.600260 -0.683279 0.557726 0.471206
0.519531 0.410156 0.600260 0.683279 0.557726 0.471206
-0.588542 0.243490 0.585938 -0.885617 0.000153 0.464370
0.452148 0.243164 0.780273 0.646077 -0.004578 0.763237
-0.424805 0.316406 0.787109 -0.523484 0.368267 0.768303
-0.452148 0.243164 0.780273 -0.646077 -0.004578 0.763237
0.424805 0.316406 0.787109 0.523484 0.368267 0.768303
-0.352539 0.346680 0.803711 -0.133702 0.578082 0.804926
0.352539 0.346680 0.803711 0.133702 0.578082 0.804926
-0.283203 0.316406 0.816406 0.314920 0.402814 0.859371
0.283203 0.316406 0.816406 -0.314920 0.402814 0.859371
-0.253906 0.243164 0.818359 0.516312 -0.006378 0.856349
0.283203 0.173828 0.816406 -0.308542 -0.409040 0.858730
-0.283203 0.173828 0.816406 0.308542 -0.409040 0.858730
0.352539 0.144531 0.803711 0.134434 -0.577715 0.805048
-0.352539 0.144531 0.803711 -0.134434 -0.577715 0.805048
0.424805 0.173828 0.787109 0.518235 -0.374340 0.768944
-0.424805 0.173828 0.787109 -0.518235 -0.374340 0.768944
0.352539 0.243652 0.814453 0.190069 -0.001740 0.981750
-0.352539 0.243652 0.814453 -0.190069 -0.001740 0.981750
0.253906 0.243164 0.818359 -0.516312 -0.006378 0.856349
0.171875 -0.959961 0.548828 0.175787 -0.981597 0.074465
0.141602 -0.928711 0.631836 0.188665 -0.776299 0.601428
0.000000 -0.974609 0.565430 0.000000 -0.992828 0.119327
0.000000 -0.939453 0.636719 0.000000 -0.816828 0.576861
-0.141602 -0.928711 0.631836 -0.188665 -0.776299 0.601428
0.302734 -0.933594 0.526367 0.641957 -0.760216 0.099429
0.226562 -0.898438 0.632812 0.439711 -0.588000 0.678854
-0.226562 -0.898438 0.632812 -0.439711 -0.588000 0.678854
-0.171875 -0.959961 0.548828 -0.175787 -0.981597 0.074465
0.337891 -0.841797 0.533203 0.978820 -0.144719 0.144719
0.252930 -0.813477 0.655273 0.620930 -0.210089 0.755150
-0.252930 -0.813477 0.655273 -0.620930 -0.210089 0.755150
-0.337891 -0.841797 0.533203 -0.978820 -0.144719 0.144719
0.323242 -0.664062 0.557617 0.983947 0.103977 0.144993
0.243164 -0.682617 0.678711 0.634175 -0.018921 0.772942
-0.243164 -0.682617 0.678711 -0.634175 -0.018921 0.772942
-0.323242 -0.664062 0.557617 -0.983947 0.103977 0.144993
0.288086 -0.444336 0.565430 0.966521 0.203528 0.156011
0.208008 -0.459961 0.695312 0.642384 0.097385 0.760155
-0.208008 -0.459961 0.695312 -0.642384 0.097385 0.760155
-0.288086 -0.444336 0.565430 -0.966521 0.203528 0.156011
0.226562 -0.176758 0.581055 0.759423 -0.532151 0.374187
0.427734 -0.116211 0.545898 0.409925 -0.878872 0.243934
0.393555 -0.044922 0.669922 0.365734 -0.567827 0.737388
-0.393555 -0.044922 0.669922 -0.365734 -0.567827 0.737388
-0.427734 -0.116211 0.545898 -0.409925 -0.878872 0.243934
-0.226562 -0.176758 0.581055 -0.759423 -0.532151 0.374187
0.626953 -0.011719 0.521484 0.615741 -0.744804 0.257027
0.589844 0.049805 0.623047 0.520524 -0.475448 0.709189
-0.589844 0.049805 0.623047 -0.520524 -0.475448 0.709189
-0.626953 -0.011719 0.521484 -0.615741 -0.744804 0.257027
0.788086 0.168945 0.486328 0.910276 -0.384289 0.153874
0.714844 0.197266 0.597656 0.613910 -0.342051 0.711386
-0.714844 0.197266 0.597656 -0.613910 -0.342051 0.711386
-0.788086 0.168945 0.486328 -0.910276 -0.384289 0.153874
0.814453 0.391602 0.570312 0.917844 0.328654 0.222480
-0.735352 0.355469 0.649414 -0.582018 -0.100803 0.806879
-0.814453 0.391602 0.570312 -0.917844 0.328654 0.222480
0.695312 0.479492 0.625000 0.594928 0.763207 0.251991
0.735352 0.355469 0.649414 0.582018 -0.100803 0.806879
-0.655273 0.429688 0.706055 -0.435896 0.081118 0.896329
-0.695312 0.479492 0.625000 -0.594928 0.763207 0.251991
0.490234 0.593750 0.682617 0.571581 0.809107 0.136357
0.655273 0.429688 0.706055 0.435896 0.081118 0.896329
-0.458984 0.535156 0.769531 -0.350322 0.125126 0.928220
-0.490234 0.593750 0.682617 -0.571581 0.809107 0.136357
0.322266 0.709961 0.726562 0.185278 0.955412 0.229896
0.317383 0.620117 0.808594 0.239113 0.281655 0.929228
-0.317383 0.620117 0.808594 -0.239113 0.281655 0.929228
-0.322266 0.709961 0.726562 -0.185278 0.955412 0.229896
0.175781 0.675781 0.748047 -0.552110 0.796289 0.247047
-0.204102 0.590820 0.825195 0.162114 0.215644 0.962889
-0.175781 0.675781 0.748047 0.552110 0.796289 0.247047
0.077148 0.500977 0.744141 -0.721549 0.649098 0.240852
0.204102 0.590820 0.825195 -0.162114 0.215644 0.962889
-0.104492 0.449219 0.821289 0.175054 0.119968 0.977203
-0.077148 0.500977 0.744141 0.721549 0.649098 0.240852
0.000000 0.432617 0.736328 0.000000 0.860744 0.509018
0.104492 0.449219 0.821289 -0.175054 0.119968 0.977203
0.000000 0.351562 0.804036 0.000000 -0.025300 0.999664
0.167969 0.404297 0.780273 0.245582 -0.160680 0.955931
0.246094 0.475586 0.771484 0.238594 -0.178594 0.954527
-0.246094 0.475586 0.771484 -0.238594 -0.178594 0.954527
0.330078 0.485352 0.754883 0.156346 -0.177831 0.971557
-0.330078 0.485352 0.754883 -0.156346 -0.177831 0.971557
0.438477 0.443359 0.731445 0.212806 -0.075320 0.974151
0.458984 0.535156 0.769531 0.350322 0.125126 0.928220
0.590820 0.375000 0.680664 0.171514 -0.254250 0.951781
-0.438477 0.443359 0.731445 -0.212806 -0.075320 0.974151
0.639648 0.301758 0.656250 0.323069 -0.228614 0.918332
-0.639648 0.301758 0.656250 -0.323069 -0.228614 0.918332
0.617188 0.188477 0.649414 0.477248 -0.202399 0.855129
0.507812 0.076172 0.672852 0.432539 -0.370006 0.822169
-0.617188 0.188477 0.649414 -0.477248 -0.202399 0.855129
0.371094 0.029297 0.705078 0.244911 -0.457137 0.854976
-0.507812 0.076172 0.672852 -0.432539 -0.370006 0.822169
0.212891 0.067383 0.751953 0.051576 -0.195868 0.979247
0.151693 -0.091146 0.752604 0.288369 -0.191260 0.938200
-0.151693 -0.091146 0.752604 -0.288369 -0.191260 0.938200
-0.212891 0.067383 0.751953 -0.051576 -0.195868 0.979247
0.147461 0.133789 0.750000 -0.114078 -0.130589 0.984832
0.000000 0.035807 0.749349 0.000000 -0.027100 0.999603
-0.147461 0.133789 0.750000 0.114078 -0.130589 0.984832
0.122070 0.311523 0.774414 0.069002 -0.176611 0.981842
-0.122070 0.311523 0.774414 -0.069002 -0.176611 0.981842
0.000000 0.208008 0.765625 0.000000 -0.153569 0.988128
-0.124023 0.214844 0.761719 0.076449 -0.124516 0.989257
0.072266 -0.881836 0.687500 0.032472 -0.439589 0.897580
0.000000 -0.893555 0.683594 0.000000 -0.375561 0.926786
-0.072266 -0.881836 0.687500 -0.032472 -0.439589 0.897580
0.121094 -0.834961 0.702148 0.145878 -0.322672 0.935179
-0.121094 -0.834961 0.702148 -0.145878 -0.322672 0.935179
0.114063 -0.744531 0.724219 0.169317 -0.186926 0.967650
0.090820 -0.456055 0.742188 0.221320 -0.009033 0.975127
0.113281 -0.662109 0.730469 0.219001 -0.046937 0.974578
-0.113281 -0.662109 0.730469 -0.219001 -0.046937 0.974578
-0.090820 -0.456055 0.742188 -0.221320 -0.009033 0.975127
-0.114063 -0.744531 0.724219 -0.169317 -0.186926 0.967650
0.090625 -0.303125 0.744531 0.446883 -0.293130 0.845180
0.000000 -0.332031 0.748047 0.000000 -0.359325 0.933195
0.000000 -0.459961 0.747070 0.000000 -0.030793 0.999512
0.000000 -0.663086 0.736328 0.000000 -0.049837 0.998749
0.000000 -0.744141 0.732422 0.000000 -0.363292 0.931669
0.123047 -0.226562 0.749023 0.856441 -0.109989 0.504349
0.121094 -0.220703 0.791016 0.915464 -0.149663 0.373486
0.083984 -0.272461 0.781250 0.527360 -0.619526 0.581408
-0.083984 -0.272461 0.781250 -0.527360 -0.619526 0.581408
-0.121094 -0.220703 0.791016 -0.915464 -0.149663 0.373486
-0.123047 -0.226562 0.749023 -0.856441 -0.109989 0.504349
0.095703 -0.149414 0.756836 0.523209 0.442030 0.728568
0.100586 -0.148438 0.782227 0.662404 0.731223 0.162725
-0.100586 -0.148438 0.782227 -0.662404 0.731223 0.162725
-0.095703 -0.149414 0.756836 -0.523209 0.442030 0.728568
0.000000 -0.128255 0.748047 0.000000 0.298379 0.954436
0.039062 -0.138672 0.782227 -0.173437 0.910794 0.374584
-0.039062 -0.138672 0.782227 0.173437 0.910794 0.374584
0.000000 -0.179688 0.759766 0.000000 0.839412 0.543443
0.000000 -0.174805 0.791016 0.000000 0.914914 0.403607
0.000000 -0.305664 0.779297 0.000000 -0.699850 0.714255
-0.090625 -0.303125 0.744531 -0.446883 -0.293130 0.845180
0.000000 -0.272461 0.804688 0.000000 -0.474807 0.880062
-0.072917 -0.256510 0.804688 -0.263283 -0.553331 0.790216
0.000000 -0.203776 0.820964 0.000000 0.121586 0.992553
0.045573 -0.154948 0.809896 -0.124668 0.621204 0.773644
-0.045573 -0.154948 0.809896 0.124668 0.621204 0.773644
-0.091146 -0.162760 0.809896 -0.427076 0.484176 0.763634
0.091146 -0.162760 0.809896 0.427076 0.484176 0.763634
-0.092773 -0.217773 0.819336 -0.392834 -0.158208 0.905881
0.092773 -0.217773 0.819336 0.392834 -0.158208 0.905881
0.072917 -0.256510 0.804688 0.263283 -0.553331 0.790216
0.165039 -0.232422 0.708984 0.774743 -0.059084 0.629475
-0.165039 -0.232422 0.708984 -0.774743 -0.059084 0.629475
-0.179688 -0.317383 0.695312 -0.725364 0.085238 0.683035
0.179688 -0.317383 0.695312 0.725364 0.085238 0.683035
0.247070 -0.316406 0.560547 0.947081 0.224982 0.228919
-0.247070 -0.316406 0.560547 -0.947081 0.224982 0.228919
0.221680 -0.246094 0.564453 0.935881 0.096530 0.338786
-0.221680 -0.246094 0.564453 -0.935881 0.096530 0.338786
0.083984 -0.753906 0.716797 -0.157292 -0.653798 0.740104
0.000000 -0.765625 0.714844 0.000000 -0.833033 0.553178
-0.083984 -0.753906 0.716797 0.157292 -0.653798 0.740104
0.090820 -0.817383 0.701172 -0.603504 -0.056185 0.795373
-0.090820 -0.817383 0.701172 0.603504 -0.056185 0.795373
0.048828 -0.862305 0.684570 -0.324442 0.400220 0.857021
-0.048828 -0.862305 0.684570 0.324442 0.400220 0.857021
0.000000 -0.873047 0.680664 0.000000 0.514695 0.857356
0.000000 -0.849609 0.642578 0.000000 0.424390 0.905454
-0.052734 -0.836914 0.644531 0.325694 0.353099 0.877041
0.085938 -0.809896 0.654948 -0.758812 0.056551 0.648793
-0.085938 -0.809896 0.654948 0.758812 0.056551 0.648793
0.076172 -0.773438 0.664062 -0.460616 -0.638386 0.616657
-0.076172 -0.773438 0.664062 0.460616 -0.638386 0.616657
0.000000 -0.782227 0.663086 0.000000 -0.684286 0.729209
0.052734 -0.836914 0.644531 -0.325694 0.353099 0.877041
0.124023 0.214844 0.761719 -0.076449 -0.124516 0.989257
0.189453 0.158203 0.769531 0.073916 -0.014283 0.997131
-0.189453 0.158203 0.769531 -0.073916 -0.014283 0.997131
0.177734 0.297852 0.776367 0.240669 -0.120426 0.963103
-0.172852 0.220703 0.773438 -0.186895 -0.024293 0.982055
-0.177734 0.297852 0.776367 -0.240669 -0.120426 0.963103
-0.167969 0.404297 0.780273 -0.245582 -0.160680 0.955931
-0.239258 0.109375 0.767578 -0.129856 -0.021455 0.991272
0.369141 0.070312 0.737305 0.245125 -0.235267 0.940489
-0.369141 0.070312 0.737305 -0.245125 -0.235267 0.940489
-0.371094 0.029297 0.705078 -0.244911 -0.457137 0.854976
0.476562 0.105469 0.708984 0.327799 -0.149266 0.932859
-0.476562 0.105469 0.708984 -0.327799 -0.149266 0.932859
0.568359 0.196289 0.680664 0.302591 -0.074923 0.950133
-0.568359 0.196289 0.680664 -0.302591 -0.074923 0.950133
0.584961 0.285156 0.680664 0.224647 -0.110172 0.968169
-0.584961 0.285156 0.680664 -0.224647 -0.110172 0.968169
-0.548828 0.350586 0.698242 -0.237892 -0.144841 0.960418
-0.590820 0.375000 0.680664 -0.171514 -0.254250 0.951781
0.548828 0.350586 0.698242 0.237892 -0.144841 0.960418
-0.428711 0.400391 0.751953 -0.226844 -0.099307 0.968841
0.337891 0.427734 0.758789 0.160131 -0.016968 0.986938
-0.337891 0.427734 0.758789 -0.160131 -0.016968 0.986938
0.271484 0.419922 0.769531 0.164434 -0.068270 0.984008
-0.271484 0.419922 0.769531 -0.164434 -0.068270 0.984008
-0.211914 0.374023 0.776367 -0.219581 -0.124393 0.967620
0.211914 0.374023 0.776367 0.219581 -0.124393 0.967620
0.231771 0.358073 0.763021 0.354228 -0.269509 0.895444
-0.231771 0.358073 0.763021 -0.354228 -0.269509 0.895444
0.281250 0.397135 0.763021 0.171148 -0.202582 0.964171
-0.281250 0.397135 0.763021 -0.171148 -0.202582 0.964171
0.428711 0.400391 0.751953 0.226844 -0.099307 0.968841
0.339844 0.406250 0.753906 0.084689 -0.233772 0.968566
-0.339844 0.406250 0.753906 -0.084689 -0.233772 0.968566
0.520833 0.338542 0.692708 0.038850 -0.487655 0.872158
-0.421875 0.385417 0.742188 -0.057619 -0.563677 0.823969
-0.520833 0.338542 0.692708 -0.038850 -0.487655 0.872158
0.554688 0.279948 0.675781 -0.119785 -0.136418 0.983367
-0.554688 0.279948 0.675781 0.119785 -0.136418 0.983367
0.539062 0.204427 0.678385 -0.022675 0.182409 0.982940
-0.539062 0.204427 0.678385 0.022675 0.182409 0.982940
0.367188 0.093750 0.730469 0.217017 0.291635 0.931547
-0.463542 0.125000 0.704427 -0.102603 0.290384 0.951384
-0.367188 0.093750 0.730469 -0.217017 0.291635 0.931547
0.239258 0.109375 0.767578 0.129856 -0.021455 0.991272
0.255208 0.123698 0.755208 0.327464 0.374767 0.867336
-0.255208 0.123698 0.755208 -0.327464 0.374767 0.867336
0.205729 0.170573 0.755208 0.520218 0.247780 0.817255
-0.205729 0.170573 0.755208 -0.520218 0.247780 0.817255
0.199219 0.295573 0.760417 0.557848 -0.182165 0.809687
-0.199219 0.295573 0.760417 -0.557848 -0.182165 0.809687
0.172852 0.220703 0.773438 0.186895 -0.024293 0.982055
0.192708 0.227865 0.756510 0.637440 0.011689 0.770379
-0.192708 0.227865 0.756510 -0.637440 0.011689 0.770379
0.000000 0.443359 0.617188 0.000000 0.927732 0.373180
-0.128906 0.499219 0.614063 0.406720 0.913511 -0.002625
0.197917 0.643229 0.635417 -0.479995 0.599902 -0.640065
-0.197917 0.643229 0.635417 0.479995 0.599902 -0.640065
-0.334635 0.673177 0.614583 -0.084170 0.746879 -0.659566
0.334635 0.673177 0.614583 0.084170 0.746879 -0.659566
-0.450000 0.550000 0.558594 -0.238166 0.926359 -0.291726
0.450000 0.550000 0.558594 0.238166 0.926359 -0.291726
-0.667969 0.463867 0.486328 -0.456557 0.885952 -0.081210
0.667969 0.463867 0.486328 0.456557 0.885952 -0.081210
-0.778320 0.384766 0.455078 -0.870235 0.458144 -0.180883
0.778320 0.384766 0.455078 0.870235 0.458144 -0.180883
-0.771484 0.180664 0.359375 -0.957793 -0.287362 -0.003265
0.623047 -0.001953 0.388672 0.637104 -0.768303 0.061342
-0.623047 -0.001953 0.388672 -0.637104 -0.768303 0.061342
0.404688 -0.117969 0.440625 0.493271 -0.860195 0.129246
-0.404688 -0.117969 0.440625 -0.493271 -0.860195 0.129246
0.000000 -0.581055 0.328125 0.000000 -0.299264 -0.954161
0.000000 -0.474609 0.268555 0.000000 -0.774987 -0.631947
0.133789 -0.549805 0.346680 0.339396 -0.327372 -0.881802
-0.161133 -0.427734 0.280273 -0.641743 -0.609882 -0.464919
-0.133789 -0.549805 0.346680 -0.339396 -0.327372 -0.881802
0.000000 -0.785156 0.361328 0.000000 -0.307718 -0.951445
0.142578 -0.753906 0.374023 0.177252 -0.179907 -0.967559
-0.142578 -0.753906 0.374023 -0.177252 -0.179907 -0.967559
0.000000 -0.948242 0.455078 0.000000 -0.812891 -0.582385
0.163086 -0.924805 0.441406 0.085849 -0.738487 -0.668752
-0.163086 -0.924805 0.441406 -0.085849 -0.738487 -0.668752
-0.302734 -0.933594 0.526367 -0.641957 -0.760216 0.099429
0.294271 -0.890625 0.423177 0.557634 -0.466170 -0.686789
-0.294271 -0.890625 0.423177 -0.557634 -0.466170 -0.686789
0.280273 -0.738281 0.402344 0.644734 0.048036 -0.762871
-0.280273 -0.738281 0.402344 -0.644734 0.048036 -0.762871
0.250000 -0.537109 0.410156 0.800104 -0.000275 -0.599811
-0.250000 -0.537109 0.410156 -0.800104 -0.000275 -0.599811
0.237305 -0.379883 0.409180 0.945341 0.016297 -0.325632
0.161133 -0.427734 0.280273 0.641743 -0.609882 -0.464919
0.241406 -0.285937 0.389063 0.892178 -0.446608 0.067354
0.242188 -0.212891 0.478516 0.867824 -0.285501 0.406568
-0.242188 -0.212891 0.478516 -0.867824 -0.285501 0.406568
-0.241406 -0.285937 0.389063 -0.892178 -0.446608 0.067354
-0.237305 -0.379883 0.409180 -0.945341 0.016297 -0.325632
0.243490 -0.170573 0.500000 0.687887 -0.632191 0.356517
-0.243490 -0.170573 0.500000 -0.687887 -0.632191 0.356517
0.000000 0.094727 -0.770508 0.000000 -0.254219 -0.967132
0.329102 0.075195 -0.659180 0.402539 -0.311075 -0.860897
0.000000 -0.173828 -0.618164 0.000000 -0.705374 -0.708792
-0.311523 -0.127930 -0.538086 -0.438032 -0.682119 -0.585467
-0.329102 0.075195 -0.659180 -0.402539 -0.311075 -0.860897
0.311523 -0.127930 -0.538086 0.438032 -0.682119 -0.585467
0.000000 -0.351562 -0.302734 0.000000 -0.935881 -0.352306
-0.271484 -0.295898 -0.250000 -0.452132 -0.857997 -0.243690
0.271484 -0.295898 -0.250000 0.452132 -0.857997 -0.243690
0.000000 -0.436523 0.125977 0.000000 -0.976348 -0.216163
-0.215625 -0.359375 0.157813 -0.577441 -0.814875 -0.049806
0.215625 -0.359375 0.157813 0.577441 -0.814875 -0.049806
0.771484 0.180664 0.359375 0.957793 -0.287362 -0.003265
0.685156 -0.029687 0.073437 0.702384 -0.702902 0.111881
-0.685156 -0.029687 0.073437 -0.702384 -0.702902 0.111881
0.000000 0.511719 -0.773438 0.000000 0.346843 -0.937895
0.406250 0.445312 -0.662109 0.383282 0.244148 -0.890744
-0.406250 0.445312 -0.662109 -0.383282 0.244148 -0.890744
0.000000 0.856445 0.264648 0.000000 0.847835 0.530229
0.420898 0.807617 0.205078 0.382733 0.786859 0.484085
0.000000 0.949219 -0.088867 0.000000 0.999939 0.010773
-0.419922 0.896484 -0.087891 -0.349132 0.936857 0.018891
-0.420898 0.807617 0.205078 -0.382733 0.786859 0.484085
0.419922 0.896484 -0.087891 0.349132 0.936857 0.018891
0.420898 0.801758 -0.412109 0.334574 0.783166 -0.524094
-0.420898 0.801758 -0.412109 -0.334574 0.783166 -0.524094
0.000000 0.859375 -0.485352 0.000000 0.832545 -0.553911
0.748047 0.410156 0.283203 0.865383 0.464156 0.188665
-0.748047 0.410156 0.283203 -0.865383 0.464156 0.188665
0.629883 0.487305 0.304688 0.554064 0.764702 0.328929
0.776367 0.537109 0.090820 0.842402 0.459792 0.280923
-0.776367 0.537109 0.090820 -0.842402 0.459792 0.280923
-0.629883 0.487305 0.304688 -0.554064 0.764702 0.328929
0.635742 0.678711 0.083008 0.649739 0.683676 0.332194
0.780273 0.581055 -0.137695 0.878140 0.478256 -0.009552
-0.780273 0.581055 -0.137695 -0.878140 0.478256 -0.009552
-0.635742 0.678711 0.083008 -0.649739 0.683676 0.332194
0.636719 0.741211 -0.169922 0.653768 0.753838 -0.065432
0.766927 0.529948 -0.346354 0.834834 0.355907 -0.419904
-0.766927 0.529948 -0.346354 -0.834834 0.355907 -0.419904
-0.636719 0.741211 -0.169922 -0.653768 0.753838 -0.065432
0.760156 0.289844 -0.414844 0.603198 0.075991 -0.793939
0.603516 0.339844 -0.559570 0.587085 0.003998 -0.809503
-0.633789 0.650391 -0.413086 -0.596973 0.572008 -0.562456
-0.603516 0.339844 -0.559570 -0.587085 0.003998 -0.809503
0.633789 0.650391 -0.413086 0.596973 0.572008 -0.562456
0.426758 0.565430 0.419922 0.291269 0.854549 0.429945
-0.426758 0.565430 0.419922 -0.291269 0.854549 0.429945
0.000000 0.557943 0.532552 0.000000 0.718589 0.695425
0.128906 0.499219 0.614063 -0.406720 0.913511 -0.002625
-0.812500 0.222656 0.119141 -0.980651 -0.158971 0.114078
0.812500 0.222656 0.119141 0.980651 -0.158971 0.114078
0.828906 0.292969 -0.053906 0.997742 -0.055910 0.036805
-0.828906 0.292969 -0.053906 -0.997742 -0.055910 0.036805
0.826563 0.353906 -0.206250 0.909665 0.351390 0.221351
-0.826563 0.353906 -0.206250 -0.909665 0.351390 0.221351
0.406250 -0.186719 0.166406 0.593158 -0.798883 0.099460
-0.437500 -0.170898 -0.208984 -0.518937 -0.838618 -0.165502
-0.406250 -0.186719 0.166406 -0.593158 -0.798883 0.099460
0.437500 -0.170898 -0.208984 0.518937 -0.838618 -0.165502
0.650391 0.000977 -0.399414 0.321360 -0.617145 -0.718192
-0.478906 0.014844 -0.516406 -0.530625 -0.535234 -0.657216
-0.650391 0.000977 -0.399414 -0.321360 -0.617145 -0.718192
0.626562 -0.103906 -0.168750 0.327128 -0.944090 0.040284
0.478906 0.014844 -0.516406 0.530625 -0.535234 -0.657216
1.032227 0.458984 -0.334961 -0.062990 0.969451 0.237037
0.898438 0.396484 -0.256836 -0.261544 0.908292 0.326395
1.027344 0.409180 -0.304688 0.494430 0.040925 0.868221
-0.922852 0.356445 -0.237305 -0.485244 0.054384 0.872677
-0.898438 0.396484 -0.256836 0.261544 0.908292 0.326395
-1.027344 0.409180 -0.304688 -0.494430 0.040925 0.868221
1.179688 0.415039 -0.389648 0.334849 -0.051241 0.940855
-1.179688 0.415039 -0.389648 -0.334849 -0.051241 0.940855
-1.032227 0.458984 -0.334961 0.062990 0.969451 0.237037
1.218750 0.466797 -0.419922 0.380871 0.910031 0.163579
1.319336 0.303711 -0.430664 0.815271 0.166845 0.554491
-1.255859 0.280273 -0.411133 0.066500 -0.120182 0.990509
-1.319336 0.303711 -0.430664 -0.815271 0.166845 0.554491
1.255859 0.280273 -0.411133 -0.066500 -0.120182 0.990509
1.254883 0.071289 -0.425781 0.716910 -0.606922 0.342967
-1.201172 0.088867 -0.401367 0.010285 0.295755 0.955199
-1.254883 0.071289 -0.425781 -0.716910 -0.606922 0.342967
1.201172 0.088867 -0.401367 -0.010285 0.295755 0.955199
1.035156 -0.077148 -0.333008 0.425733 -0.895199 0.131718
-1.030273 -0.031250 -0.306641 -0.522477 0.205573 0.827479
-1.035156 -0.077148 -0.333008 -0.425733 -0.895199 0.131718
1.030273 -0.031250 -0.306641 0.522477 0.205573 0.827479
0.839844 -0.063477 -0.167969 0.361064 0.172460 0.916440
-0.839844 -0.063477 -0.167969 -0.361064 0.172460 0.916440
1.038086 0.003906 -0.356445 -0.058443 0.862911 0.501907
0.886719 -0.024414 -0.235352 0.155644 0.856288 0.492447
-0.886719 -0.024414 -0.235352 -0.155644 0.856288 0.492447
-1.038086 0.003906 -0.356445 0.058443 0.862911 0.501907
1.180664 0.098633 -0.435547 -0.596637 0.644887 0.477584
-1.180664 0.098633 -0.435547 0.596637 0.644887 0.477584
1.227539 0.248047 -0.445312 -0.848018 -0.107517 0.518906
-1.227539 0.248047 -0.445312 0.848018 -0.107517 0.518906
1.165039 0.351562 -0.428711 -0.073916 -0.601245 0.795618
-1.165039 0.351562 -0.428711 0.073916 -0.601245 0.795618
1.033203 0.347656 -0.358398 0.533891 -0.576617 0.618397
-1.033203 0.347656 -0.358398 -0.533891 -0.576617 0.618397
0.922852 0.356445 -0.237305 0.485244 0.054384 0.872677
0.946289 0.306641 -0.292969 0.664144 -0.489975 0.564623
-0.946289 0.306641 -0.292969 -0.664144 -0.489975 0.564623
0.742188 0.036133 -0.077148 0.879604 -0.471084 0.065828
-0.727344 -0.028906 -0.168750 -0.618183 -0.203925 0.759087
-0.626562 -0.103906 -0.168750 -0.327128 -0.944090 0.040284
-0.742188 0.036133 -0.077148 -0.879604 -0.471084 0.065828
0.792969 -0.123047 -0.181641 0.046480 -0.893277 0.447066
0.727344 -0.028906 -0.168750 0.618183 -0.203925 0.759087
-0.792969 -0.123047 -0.181641 -0.046480 -0.893277 0.447066
0.850586 0.286133 -0.217773 0.533769 -0.159490 0.830409
-0.850586 0.286133 -0.217773 -0.533769 -0.159490 0.830409
0.813477 -0.013672 -0.258789 0.559954 0.611621 0.558855
-0.813477 -0.013672 -0.258789 -0.559954 0.611621 0.558855
0.822266 0.023438 -0.268555 0.790002 0.094424 0.605762
0.743750 0.048437 -0.193750 0.944945 -0.119846 0.304453
-0.743750 0.048437 -0.193750 -0.944945 -0.119846 0.304453
0.771484 0.095703 -0.268555 0.895718 0.006958 0.444533
-0.822266 0.023438 -0.268555 -0.790002 0.094424 0.605762
-0.771484 0.095703 -0.268555 -0.895718 0.006958 0.444533
0.829102 0.174805 -0.270508 0.714286 -0.568346 0.408277
0.805664 0.204102 -0.195312 0.899625 -0.351726 0.258705
-0.805664 0.204102 -0.195312 -0.899625 -0.351726 0.258705
0.884766 0.246094 -0.269531 0.693960 -0.470016 0.545396
-0.829102 0.174805 -0.270508 -0.714286 -0.568346 0.408277
-0.884766 0.246094 -0.269531 -0.693960 -0.470016 0.545396
0.901367 0.226562 -0.320312 0.592944 -0.364483 0.718009
-0.901367 0.226562 -0.320312 -0.592944 -0.364483 0.718009
-0.844727 0.162109 -0.315430 -0.490768 -0.377575 0.785180
0.787760 0.104167 -0.312500 0.717856 0.072817 0.692343
-0.787760 0.104167 -0.312500 -0.717856 0.072817 0.692343
0.815104 0.074219 -0.281250 0.613025 0.512162 0.601520
-0.830078 0.077148 -0.315430 -0.461562 0.297189 0.835810
-0.815104 0.074219 -0.281250 -0.613025 0.512162 0.601520
0.853516 0.025391 -0.316406 0.328166 0.245155 0.912229
-0.853516 0.025391 -0.316406 -0.328166 0.245155 0.912229
0.830729 -0.010417 -0.303385 0.520188 0.517777 0.679159
-0.830729 -0.010417 -0.303385 -0.520188 0.517777 0.679159
-0.901367 -0.004883 -0.293945 -0.058565 0.793573 0.605609
0.962891 0.282227 -0.346680 0.609088 -0.340129 0.716422
-0.962891 0.282227 -0.346680 -0.609088 -0.340129 0.716422
1.050781 0.320312 -0.404297 0.464736 -0.296579 0.834284
-1.050781 0.320312 -0.404297 -0.464736 -0.296579 0.834284
1.163086 0.322266 -0.458984 -0.027100 -0.364422 0.930815
-1.163086 0.322266 -0.458984 0.027100 -0.364422 0.930815
1.221680 0.232422 -0.471680 -0.526200 0.040071 0.849391
-1.221680 0.232422 -0.471680 0.526200 0.040071 0.849391
1.040039 0.024414 -0.396484 0.159490 0.555254 0.816218
-1.173828 0.108398 -0.459961 0.215918 0.373577 0.902097
-1.040039 0.024414 -0.396484 -0.159490 0.555254 0.816218
0.901367 -0.004883 -0.293945 0.058565 0.793573 0.605609
0.830078 0.077148 -0.315430 0.461562 0.297189 0.835810
0.921875 0.060547 -0.328125 0.326121 0.206000 0.922575
-0.921875 0.060547 -0.328125 -0.326121 0.206000 0.922575
0.891602 0.115234 -0.330078 0.269448 0.023316 0.962706
1.000000 0.115234 -0.370117 0.398663 -0.033296 0.916471
-1.000000 0.115234 -0.370117 -0.398663 -0.033296 0.916471
-0.891602 0.115234 -0.330078 -0.269448 0.023316 0.962706
0.955078 0.173828 -0.349609 0.380139 -0.066164 0.922544
1.014648 0.232422 -0.371094 0.399030 0.029145 0.916471
-1.069336 0.175781 -0.393555 -0.386212 -0.075106 0.919309
-1.014648 0.232422 -0.371094 -0.399030 0.029145 0.916471
1.069336 0.175781 -0.393555 0.386212 -0.075106 0.919309
1.086914 0.276367 -0.403320 0.365856 0.224342 0.903195
-1.121094 0.222656 -0.406250 -0.410413 0.021851 0.911618
-1.086914 0.276367 -0.403320 -0.365856 0.224342 0.903195
-0.955078 0.173828 -0.349609 -0.380139 -0.066164 0.922544
0.844727 0.162109 -0.315430 0.490768 -0.377575 0.785180
1.173828 0.108398 -0.459961 -0.215918 0.373577 0.902097
1.121094 0.222656 -0.406250 0.410413 0.021851 0.911618
0.808594 -0.043945 -0.342773 -0.097629 -0.664876 -0.740501
-0.808594 -0.043945 -0.342773 0.097629 -0.664876 -0.740501
1.040039 -0.009766 -0.455078 -0.072756 -0.553148 -0.829859
-1.040039 -0.009766 -0.455078 0.072756 -0.553148 -0.829859
1.273438 0.119141 -0.511719 0.551347 -0.411298 -0.725822
-1.273438 0.119141 -0.511719 -0.551347 -0.411298 -0.725822
1.242188 0.396484 -0.515625 0.279824 0.520157 -0.806879
-1.335938 0.289062 -0.500000 -0.889767 0.094272 -0.446486
-1.242188 0.396484 -0.515625 -0.279824 0.520157 -0.806879
1.033203 0.374023 -0.458984 -0.389996 0.420789 -0.819025
-1.218750 0.466797 -0.419922 -0.380871 0.910031 0.163579
-1.033203 0.374023 -0.458984 0.389996 0.420789 -0.819025
0.864258 0.314453 -0.376953 -0.334727 0.543168 -0.769982
-0.864258 0.314453 -0.376953 0.334727 0.543168 -0.769982
1.335938 0.289062 -0.500000 0.889767 0.094272 -0.446486
-0.760156 0.289844 -0.414844 -0.603198 0.075991 -0.793939
0.588542 0.243490 0.585938 0.885617 0.000153 0.464370
0.421875 0.385417 0.742188 0.057619 -0.563677 0.823969
0.463542 0.125000 0.704427 0.102603 0.290384 0.951384
3 0 1 2
3 3 4 5
3 6 2 7
3 8 3 9
3 2 10 11
3 12 13 3
3 1 14 10
3 13 15 4
3 14 16 17
3 18 19 15
3 10 17 20
3 21 18 13
3 17 22 20
3 23 24 21
3 16 25 22
3 24 26 19
3 25 27 28
3 29 30 26
3 22 28 31
3 32 29 23
3 28 33 34
3 35 36 32
3 27 37 28
3 36 38 29
3 37 39 33
3 40 41 36
3 33 42 43
3 44 40 35
3 42 6 45
3 46 9 44
3 39 0 42
3 9 5 40
3 0 39 47
3 48 41 49
3 39 37 50
3 51 38 48
3 37 27 52
3 53 30 51
3 27 25 54
3 55 26 53
3 25 16 56
3 57 19 26
3 16 14 58
3 59 15 19
3 14 1 60
3 61 4 15
3 1 0 47
3 49 5 4
3 62 60 47
3 49 61 63
3 58 60 62
3 63 61 59
3 62 56 58
3 59 57 63
3 62 64 56
3 57 55 63
3 62 54 64
3 55 53 63
3 62 52 54
3 53 51 63
3 62 50 52
3 51 48 63
3 62 47 50
3 48 49 63
3 65 66 67
3 68 69 67
3 70 71 65
3 69 72 73
3 74 75 71
3 72 76 77
3 78 79 75
3 76 80 81
3 82 83 79
3 80 84 85
3 86 87 88
3 89 90 91
3 87 92 93
3 94 95 90
3 92 96 97
3 98 99 95
3 96 100 97
3 101 102 98
3 100 103 104
3 105 106 101
3 103 107 108
3 109 110 105
3 107 111 112
3 113 114 110
3 111 115 112
3 116 117 113
3 115 118 119
3 120 121 116
3 118 122 123
3 124 122 120
3 125 126 123
3 116 127 120
3 126 128 112
3 113 129 127
3 130 131 128
3 113 109 129
3 132 108 130
3 109 105 133
3 134 104 108
3 105 101 135
3 136 97 134
3 101 98 135
3 137 93 136
3 98 94 138
3 139 88 137
3 94 89 140
3 141 142 88
3 89 143 144
3 141 145 146
3 146 147 144
3 125 123 148
3 124 120 149
3 148 124 150
3 150 124 149
3 146 145 150
3 151 147 150
3 152 153 68
3 68 153 154
3 155 152 66
3 69 154 156
3 157 155 75
3 72 156 76
3 83 158 159
3 160 161 84
3 157 75 79
3 80 76 162
3 163 164 158
3 165 164 161
3 159 158 166
3 165 161 166
3 167 157 159
3 160 162 167
3 168 169 170
3 171 172 173
3 174 175 169
3 172 176 177
3 178 179 174
3 176 180 177
3 181 182 179
3 180 182 181
3 164 163 183
3 171 184 183
3 183 170 185
3 186 171 185
3 182 187 188
3 189 187 182
3 179 188 175
3 190 189 176
3 175 191 169
3 192 190 172
3 169 193 194
3 186 192 172
3 187 193 188
3 190 192 189
3 187 185 194
3 186 185 187
3 178 174 142
3 143 177 178
3 174 168 195
3 196 173 177
3 168 163 195
3 197 184 196
3 163 158 198
3 84 161 197
3 82 199 83
3 197 200 84
3 199 201 198
3 196 202 197
3 86 142 195
3 196 143 91
3 157 167 203
3 204 167 205
3 155 157 206
3 205 162 207
3 152 155 206
3 207 156 154
3 153 152 208
3 209 154 153
3 210 208 211
3 212 209 211
3 208 206 213
3 214 207 209
3 206 203 215
3 216 205 207
3 203 204 215
3 217 204 216
3 217 211 218
3 212 211 217
3 215 218 213
3 214 212 216
3 219 145 220
3 221 147 151
3 148 219 222
3 223 151 224
3 125 148 222
3 224 149 225
3 145 141 220
3 226 144 221
3 141 139 227
3 228 229 144
3 139 137 230
3 231 140 229
3 137 136 232
3 233 138 140
3 136 134 234
3 235 135 138
3 134 132 234
3 236 237 235
3 132 130 238
3 239 133 236
3 130 128 240
3 241 129 133
3 128 126 242
3 243 127 129
3 126 125 242
3 244 225 243
3 242 245 246
3 247 244 243
3 240 242 248
3 249 243 241
3 250 240 251
3 252 241 239
3 238 250 253
3 254 239 255
3 234 238 256
3 255 236 257
3 232 234 256
3 257 235 233
3 230 232 258
3 259 233 231
3 227 230 260
3 261 231 262
3 263 227 264
3 262 228 265
3 220 263 266
3 265 226 267
3 245 222 268
3 269 224 244
3 222 270 271
3 272 223 224
3 270 220 266
3 267 221 223
3 122 118 273
3 274 121 273
3 118 115 275
3 276 117 121
3 115 111 275
3 277 114 276
3 111 107 278
3 279 110 277
3 107 103 280
3 281 106 279
3 103 100 282
3 283 102 281
3 100 96 284
3 285 99 283
3 96 92 286
3 287 95 99
3 92 87 288
3 289 90 95
3 290 291 292
3 293 291 294
3 295 290 296
3 294 290 297
3 298 295 299
3 297 295 300
3 65 67 298
3 298 67 73
3 70 65 299
3 300 73 301
3 74 70 302
3 303 301 77
3 78 74 304
3 305 77 81
3 304 296 306
3 294 297 307
3 304 302 296
3 300 303 297
3 308 306 309
3 294 307 293
3 82 78 306
3 307 81 85
3 199 310 311
3 312 313 200
3 82 308 199
3 313 314 200
3 86 201 315
3 312 202 316
3 86 315 87
3 289 316 90
3 317 318 319
3 320 321 319
3 319 322 323
3 324 320 323
3 323 325 326
3 327 324 326
3 326 328 309
3 293 327 326
3 308 309 310
3 327 293 313
3 329 286 330
3 331 287 285
3 332 333 317
3 321 334 317
3 335 336 337
3 338 339 337
3 337 340 341
3 342 338 337
3 343 341 333
3 334 342 343
3 282 284 344
3 345 283 281
3 346 344 347
3 348 345 349
3 350 347 351
3 352 348 353
3 354 351 355
3 356 352 357
3 358 359 355
3 360 361 356
3 333 341 362
3 360 342 334
3 341 340 354
3 357 338 342
3 340 336 350
3 353 339 338
3 336 363 346
3 349 364 339
3 280 282 363
3 349 281 364
3 365 363 335
3 339 364 335
3 366 275 278
3 277 276 274
3 366 280 363
3 364 279 274
3 273 366 365
3 365 274 273
3 284 329 344
3 367 285 345
3 368 369 347
3 348 370 367
3 369 371 351
3 352 372 370
3 358 355 371
3 352 356 372
3 328 325 373
3 374 324 375
3 330 373 376
3 374 375 331
3 286 288 373
3 375 289 287
3 288 311 310
3 313 312 289
3 310 328 373
3 375 327 313
3 288 315 311
3 312 316 289
3 358 377 359
3 378 379 361
3 333 359 318
3 378 361 321
3 380 376 377
3 378 374 379
3 325 322 376
3 378 320 374
3 318 381 322
3 320 378 321
3 382 383 384
3 385 386 387
3 382 384 388
3 389 387 390
3 391 388 392
3 393 389 394
3 392 395 396
3 397 393 398
3 396 399 400
3 401 397 402
3 400 403 404
3 405 401 402
3 403 406 407
3 408 409 401
3 399 410 406
3 409 411 397
3 395 412 399
3 411 413 397
3 388 414 395
3 413 415 393
3 384 416 388
3 415 417 389
3 384 418 419
3 420 385 387
3 330 380 421
3 422 423 424
3 380 425 426
3 405 427 422
3 368 330 421
3 424 331 367
3 371 428 418
3 385 429 372
3 404 407 430
3 431 408 405
3 432 433 430
3 422 434 431
3 435 433 432
3 436 434 437
3 438 439 435
3 434 440 437
3 428 439 441
3 442 440 443
3 418 428 441
3 443 429 385
3 369 439 371
3 429 440 372
3 369 421 439
3 434 424 440
3 421 426 433
3 434 422 424
3 419 441 444
3 445 443 420
3 441 438 444
3 446 442 445
3 438 435 447
3 448 437 442
3 435 449 447
3 450 451 448
3 449 432 452
3 453 436 451
3 432 430 454
3 455 431 436
3 430 407 454
3 456 408 455
3 416 419 457
3 458 420 417
3 414 416 459
3 460 417 415
3 412 414 461
3 462 415 413
3 410 412 463
3 464 413 411
3 406 410 465
3 466 411 467
3 407 406 468
3 467 409 456
3 469 452 470
3 471 453 450
3 472 470 473
3 474 471 475
3 476 473 477
3 478 474 479
3 477 480 481
3 482 478 483
3 459 457 477
3 479 458 460
3 444 476 457
3 479 484 458
3 444 485 472
3 475 446 445
3 469 472 485
3 446 475 450
3 454 468 452
3 471 456 453
3 465 473 470
3 471 474 467
3 486 480 465
3 474 478 467
3 463 487 486
3 478 482 466
3 461 481 487
3 482 483 462
3 459 481 461
3 462 483 460
3 400 425 488
3 489 427 402
3 396 400 490
3 491 402 398
3 392 396 492
3 493 398 394
3 391 392 494
3 495 394 496
3 382 391 497
3 496 498 499
3 383 382 500
3 499 390 501
3 497 490 500
3 489 491 501
3 497 494 492
3 493 496 499
3 494 502 492
3 493 495 496
3 358 371 500
3 386 372 501
3 358 500 488
3 489 501 503
3 380 377 488
3 489 379 423
3 6 0 2
3 9 3 5
3 504 6 7
3 46 8 9
3 7 2 11
3 8 12 3
3 2 1 10
3 3 13 4
3 10 14 17
3 13 18 15
3 11 10 20
3 12 21 13
3 22 31 20
3 24 18 21
3 17 16 22
3 18 24 19
3 22 25 28
3 24 29 26
3 28 34 31
3 29 24 23
3 33 43 34
3 36 29 32
3 37 33 28
3 38 30 29
3 39 42 33
3 41 38 36
3 42 45 43
3 40 36 35
3 6 504 45
3 9 40 44
3 0 6 42
3 5 41 40
3 39 50 47
3 41 5 49
3 37 52 50
3 38 41 48
3 27 54 52
3 30 38 51
3 25 64 54
3 26 30 53
3 64 25 56
3 55 57 26
3 56 16 58
3 57 59 19
3 58 14 60
3 59 61 15
3 60 1 47
3 61 49 4
3 66 68 67
3 69 73 67
3 71 66 65
3 72 301 73
3 70 74 71
3 301 72 77
3 74 78 75
3 77 76 81
3 78 82 79
3 81 80 85
3 142 86 88
3 143 89 91
3 88 87 93
3 89 94 90
3 93 92 97
3 94 98 95
3 100 104 97
3 102 99 98
3 103 108 104
3 106 102 101
3 107 131 108
3 110 106 105
3 131 107 112
3 109 113 110
3 115 119 112
3 117 114 113
3 118 123 119
3 121 117 116
3 122 124 123
3 122 121 120
3 126 119 123
3 127 225 120
3 119 126 112
3 116 113 127
3 131 112 128
3 109 133 129
3 108 131 130
3 105 237 133
3 132 134 108
3 237 105 135
3 97 104 134
3 98 138 135
3 93 97 136
3 94 140 138
3 88 93 137
3 89 229 140
3 139 141 88
3 229 89 144
3 142 141 146
3 143 146 144
3 123 124 148
3 120 225 149
3 219 148 150
3 151 150 149
3 145 219 150
3 147 146 150
3 66 152 68
3 69 68 154
3 71 155 66
3 72 69 156
3 155 71 75
3 156 162 76
3 79 83 159
3 80 160 84
3 159 157 79
3 160 80 162
3 164 165 158
3 164 184 161
3 158 165 166
3 161 160 166
3 166 167 159
3 166 160 167
3 163 168 170
3 184 171 173
3 168 174 169
3 173 172 177
3 179 175 174
3 180 178 177
3 178 181 179
3 178 180 181
3 163 170 183
3 184 164 183
3 170 194 185
3 171 183 185
3 179 182 188
3 180 189 182
3 188 191 175
3 189 180 176
3 191 193 169
3 190 176 172
3 170 169 194
3 171 186 172
3 193 191 188
3 192 187 189
3 193 187 194
3 192 186 187
3 146 178 142
3 146 143 178
3 142 174 195
3 143 196 177
3 163 198 195
3 184 173 196
3 158 83 198
3 161 184 197
3 199 198 83
3 200 85 84
3 201 195 198
3 202 200 197
3 201 86 195
3 202 196 91
3 167 204 203
3 167 162 205
3 157 203 206
3 162 156 207
3 208 152 206
3 209 207 154
3 210 153 208
3 210 209 153
3 208 218 211
3 209 210 211
3 218 208 213
3 212 214 209
3 213 206 215
3 214 216 207
3 204 217 215
3 204 205 216
3 215 217 218
3 216 212 217
3 270 219 220
3 223 221 151
3 219 270 222
3 151 149 224
3 245 125 222
3 244 224 225
3 141 263 220
3 144 147 221
3 263 141 227
3 226 228 144
3 227 139 230
3 228 231 229
3 230 137 232
3 231 233 140
3 232 136 234
3 233 235 138
3 132 238 234
3 237 135 235
3 130 250 238
3 133 237 236
3 250 130 240
3 239 241 133
3 240 128 242
3 241 243 129
3 125 245 242
3 225 127 243
3 248 242 246
3 249 247 243
3 251 240 248
3 252 249 241
3 505 250 251
3 254 252 239
3 250 505 253
3 239 236 255
3 238 253 256
3 236 235 257
3 258 232 256
3 259 257 233
3 506 230 258
3 261 259 231
3 230 506 260
3 231 228 262
3 227 260 264
3 228 226 265
3 263 264 266
3 226 221 267
3 246 245 268
3 247 269 244
3 268 222 271
3 269 272 224
3 271 270 266
3 272 267 223
3 118 366 273
3 121 122 273
3 366 118 275
3 274 276 121
3 111 278 275
3 114 117 276
3 107 280 278
3 110 114 277
3 103 282 280
3 106 110 279
3 100 284 282
3 102 106 281
3 96 329 284
3 99 102 283
3 329 96 286
3 285 287 99
3 286 92 288
3 287 289 95
3 291 309 292
3 291 290 294
3 290 292 296
3 290 295 297
3 295 296 299
3 295 298 300
3 299 65 298
3 300 298 73
3 302 70 299
3 303 300 301
3 304 74 302
3 305 303 77
3 306 78 304
3 307 305 81
3 296 292 306
3 297 305 307
3 302 299 296
3 303 305 297
3 306 292 309
3 307 314 293
3 308 82 306
3 314 307 85
3 201 199 311
3 202 312 200
3 308 310 199
3 314 85 200
3 201 311 315
3 202 91 316
3 315 288 87
3 316 91 90
3 318 322 319
3 321 317 319
3 322 325 323
3 320 319 323
3 325 328 326
3 324 323 326
3 291 326 309
3 291 293 326
3 309 328 310
3 293 314 313
3 368 329 330
3 367 331 285
3 333 318 317
3 334 332 317
3 336 340 337
3 339 335 337
3 343 337 341
3 343 342 337
3 332 343 333
3 332 334 343
3 346 282 344
3 349 345 281
3 350 346 347
3 353 348 349
3 354 350 351
3 357 352 353
3 362 354 355
3 360 356 357
3 359 362 355
3 361 503 356
3 359 333 362
3 361 360 334
3 362 341 354
3 360 357 342
3 354 340 350
3 357 353 338
3 350 336 346
3 353 349 339
3 282 346 363
3 281 279 364
3 363 336 335
3 364 365 335
3 280 366 278
3 279 277 274
3 365 366 363
3 365 364 274
3 329 368 344
3 285 283 345
3 344 368 347
3 345 348 367
3 347 369 351
3 348 352 370
3 355 351 371
3 356 503 372
3 325 376 373
3 324 327 375
3 380 330 376
3 423 374 331
3 330 286 373
3 331 375 287
3 373 288 310
3 375 313 289
3 377 381 359
3 379 503 361
3 359 381 318
3 361 334 321
3 376 381 377
3 374 423 379
3 322 381 376
3 320 324 374
3 383 418 384
3 386 390 387
3 391 382 388
3 498 389 390
3 388 395 392
3 389 498 394
3 395 399 396
3 393 394 398
3 399 403 400
3 397 398 402
3 425 400 404
3 427 405 402
3 404 403 407
3 405 408 401
3 403 399 406
3 401 409 397
3 412 410 399
3 413 393 397
3 414 412 395
3 415 389 393
3 416 414 388
3 417 387 389
3 416 384 419
3 417 420 387
3 380 426 421
3 423 331 424
3 425 404 426
3 427 423 422
3 369 368 421
3 370 424 367
3 383 371 418
3 386 385 372
3 426 404 430
3 422 431 405
3 433 426 430
3 434 436 431
3 449 435 432
3 451 436 437
3 439 433 435
3 440 442 437
3 439 438 441
3 440 429 443
3 419 418 441
3 420 443 385
3 439 428 371
3 440 370 372
3 421 433 439
3 424 370 440
3 457 419 444
3 458 445 420
3 438 485 444
3 442 443 445
3 485 438 447
3 446 448 442
3 449 469 447
3 451 437 448
3 469 449 452
3 450 453 451
3 452 432 454
3 453 455 436
3 407 468 454
3 408 431 455
3 459 416 457
3 460 458 417
3 461 414 459
3 462 460 415
3 463 412 461
3 464 462 413
3 486 410 463
3 466 464 411
3 410 486 465
3 411 409 467
3 406 465 468
3 409 408 456
3 472 469 470
3 475 471 450
3 476 472 473
3 484 474 475
3 473 480 477
3 474 484 479
3 480 487 481
3 478 479 483
3 481 459 477
3 483 479 460
3 476 477 457
3 484 445 458
3 476 444 472
3 484 475 445
3 447 469 485
3 448 446 450
3 468 470 452
3 456 455 453
3 468 465 470
3 456 471 467
3 480 473 465
3 478 466 467
3 487 480 486
3 482 464 466
3 463 461 487
3 464 482 462
3 490 400 488
3 491 489 402
3 492 396 490
3 493 491 398
3 502 392 492
3 495 493 394
3 392 502 494
3 394 498 496
3 391 494 497
3 498 390 499
3 382 497 500
3 390 386 501
3 490 488 500
3 491 499 501
3 490 497 492
3 491 493 499
3 371 383 500
3 372 503 501
3 377 358 488
3 379 489 503
3 425 380 488
3 427 489 423
